<svg id="Layer_2" data-name="Layer 2" xmlns="http://www.w3.org/2000/svg" viewBox="0 0 186.42 186.42">
  <defs>
    <style>
      .cls-1, .cls-2 {
        fill: #009bff;
      }

      .cls-2 {
        font-size: 43.05px;
        font-family: ClabPersonalUse-Bold, Clab Personal Use;
        font-weight: 700;
      }

      .cls-3 {
        letter-spacing: -0.01em;
      }

      .cls-4 {
        letter-spacing: -0.02em;
      }

      .cls-5 {
        fill: none;
        stroke: #009bff;
        stroke-miterlimit: 10;
        stroke-width: 4px;
      }
    </style>
  </defs>
  <title>poocore_logo</title>
  <circle class="cls-1" cx="134" cy="50.73" r="21.26"/>
  <text class="cls-2" transform="translate(76.34 110.46)"><tspan class="cls-3">C</tspan><tspan class="cls-4" x="28.11" y="0">or</tspan><tspan x="70.48" y="0">e</tspan></text>
  <path class="cls-1" d="M224.59,246l-.68-.37a7.73,7.73,0,0,0,3.37-6.2c0-4-3.4-7.58-9.07-9.73a10.15,10.15,0,0,0,.5-3.11,10,10,0,0,0-10-10c-2,0-4.28-.49-4.28-2.85,0-1.29,1.65-2.71,2.22-3.1a1.43,1.43,0,0,0-.79-2.62,21.93,21.93,0,0,0-12.61,4,15.58,15.58,0,0,0-4.26,4.49,11,11,0,0,0-1.68,5.74,14.83,14.83,0,0,0,.2,2.44,17.84,17.84,0,0,0-6,4.52,11.41,11.41,0,0,0-2.8,7.31,11.74,11.74,0,0,0,1,4.68,11.35,11.35,0,0,0-3.87,8.16c0,4.35,2.93,8.39,8.26,11.34,5.06,2.81,11.75,4.36,18.86,4.36,7.3,0,13.93-.95,18.66-2.68,7-2.55,8.46-6.17,8.46-8.74C230.13,251.59,229.18,248.57,224.59,246Zm-3.9,13.76c-4.43,1.62-10.7,2.5-17.67,2.5-6.62,0-12.83-1.43-17.47-4-4.38-2.43-6.79-5.58-6.79-8.84a8.31,8.31,0,0,1,2.48-5.58,13.55,13.55,0,0,0,1.08,1.37,18.89,18.89,0,0,0,8.9,5.58l.4.06a1.42,1.42,0,0,0,1.37-1,1.43,1.43,0,0,0-1-1.77c-5.92-1.71-10.39-6.65-10.39-11.47,0-3.49,2.51-6.85,6.65-9a14.73,14.73,0,0,0,8.57,8.93l.48.08a1.42,1.42,0,0,0,.48-2.77c-4.34-1.53-7.62-6.48-7.62-11.5,0-2.89,1.69-5.7,4.76-7.93a18.81,18.81,0,0,1,7.36-3.14,5.12,5.12,0,0,0-.7,2.5c0,2.77,1.87,5.71,7.14,5.71a7.14,7.14,0,0,1,7.14,7.14,7.25,7.25,0,0,1-.36,2.24,35.26,35.26,0,0,0-3.69-.79,1.43,1.43,0,1,0-.46,2.82,24.06,24.06,0,0,1,9.71,3.5c1.54,1.06,3.37,2.8,3.37,5.08,0,1.84-1.23,3.48-3.64,4.86a42.18,42.18,0,0,0-9-2,1.43,1.43,0,0,0-.33,2.83,31.94,31.94,0,0,1,11.76,3.36c1.87,1.06,4.1,2.82,4.1,5.22,0,3-3.59,5-6.6,6.07Z" transform="translate(-156.79 -146.98)"/>
  <circle class="cls-5" cx="93.21" cy="93.21" r="91.21"/>
</svg>
